<?xml version="1.0" standalone="no"?>
<!DOCTYPE svg PUBLIC "-//W3C//DTD SVG 20010904//EN"
 "http://www.w3.org/TR/2001/REC-SVG-20010904/DTD/svg10.dtd">
<svg version="1.0" xmlns="http://www.w3.org/2000/svg"
 width="512.000000pt" height="512.000000pt" viewBox="0 0 512.000000 512.000000"
 preserveAspectRatio="xMidYMid meet">
<metadata>
Created by potrace 1.11, written by Peter Selinger 2001-2013
</metadata>
<g transform="translate(0.000000,512.000000) scale(0.100000,-0.100000)"
fill="#000000" stroke="none">
<path d="M0 2560 l0 -2560 2560 0 2560 0 0 2560 0 2560 -2560 0 -2560 0 0
-2560z m2110 459 c0 -178 1 -191 18 -184 98 42 122 47 202 48 155 0 246 -44
294 -147 39 -82 46 -157 46 -508 l0 -328 -119 0 -120 0 -3 338 c-3 299 -5 341
-21 369 -23 42 -45 53 -107 53 -53 0 -112 -24 -141 -56 -48 -54 -49 -66 -49
-394 l0 -310 -120 0 -120 0 0 655 0 655 120 0 120 0 0 -191z m1871 -135 c45
-10 69 -20 69 -30 0 -24 -42 -209 -49 -217 -4 -4 -27 -1 -50 8 -56 19 -114 19
-152 -1 -56 -28 -59 -50 -59 -414 l0 -330 -120 0 -120 0 0 490 0 490 94 0 c93
0 94 0 100 -26 6 -24 9 -25 24 -11 63 54 146 68 263 41z m-2377 -20 c77 -19
146 -50 146 -66 0 -6 -12 -54 -27 -106 -21 -75 -29 -92 -42 -88 -9 3 -47 17
-86 30 -50 18 -91 26 -142 26 -81 0 -103 -13 -103 -61 0 -25 7 -32 58 -57 31
-16 90 -41 130 -57 53 -20 89 -42 132 -82 69 -64 95 -120 95 -208 0 -99 -21
-152 -85 -217 -48 -48 -68 -60 -130 -79 -62 -19 -88 -21 -179 -16 -109 5 -230
38 -279 76 l-22 16 38 107 38 107 50 -29 c135 -78 312 -79 329 -1 14 64 -13
89 -155 141 -145 53 -213 109 -245 201 -33 91 -9 222 51 289 82 90 244 118
428 74z m1736 -84 l0 -100 -275 0 -275 0 0 100 0 100 275 0 275 0 0 -100z m0
-400 l0 -100 -275 0 -275 0 0 100 0 100 275 0 275 0 0 -100z m0 -380 l0 -100
-275 0 -275 0 0 100 0 100 275 0 275 0 0 -100z m738 -2 l3 -98 -86 0 -85 0 0
100 0 101 83 -3 82 -3 3 -97z"/>
</g>
</svg>
